<?xml version="1.0" standalone="no"?><!DOCTYPE svg PUBLIC "-//W3C//DTD SVG 1.1//EN" "http://www.w3.org/Graphics/SVG/1.1/DTD/svg11.dtd"><svg t="1685770241862" class="icon" viewBox="0 0 1024 1024" version="1.1" xmlns="http://www.w3.org/2000/svg" p-id="3276" xmlns:xlink="http://www.w3.org/1999/xlink" width="200" height="200"><path d="M170.666667 187.733333a25.6 25.6 0 0 0-25.6 25.6v469.333334a25.6 25.6 0 0 0 25.6 25.6h682.666666a25.6 25.6 0 0 0 25.6-25.6V213.333333a25.6 25.6 0 0 0-25.6-25.6H170.666667zM170.666667 128h682.666666a85.333333 85.333333 0 0 1 85.333334 85.333333v469.333334a85.333333 85.333333 0 0 1-85.333334 85.333333H170.666667a85.333333 85.333333 0 0 1-85.333334-85.333333V213.333333a85.333333 85.333333 0 0 1 85.333334-85.333333zM256 883.2a29.866667 29.866667 0 0 0 29.866667 29.866667h452.565333a29.866667 29.866667 0 1 0 0-59.733334H285.866667a29.866667 29.866667 0 0 0-29.866667 29.866667z" fill="#13227a" p-id="3277"></path><path d="M298.666667 456.533333a29.866667 29.866667 0 0 1 29.866666-29.866666h366.933334a29.866667 29.866667 0 0 1 0 59.733333H328.533333a29.866667 29.866667 0 0 1-29.866666-29.866667z" fill="#13227a" p-id="3278"></path></svg>