<svg width="1024" height="1024" xmlns="http://www.w3.org/2000/svg" p-id="3276" version="1.1" class="icon" t="1685770241862">

 <g>
  <title>Layer 1</title>
  <path id="svg_1" p-id="3277" fill="#eeeeee" d="m170.66667,187.73333a25.6,25.6 0 0 0 -25.6,25.6l0,469.33334a25.6,25.6 0 0 0 25.6,25.6l682.66666,0a25.6,25.6 0 0 0 25.6,-25.6l0,-469.33334a25.6,25.6 0 0 0 -25.6,-25.6l-682.66666,0zm0,-59.73333l682.66666,0a85.33333,85.33333 0 0 1 85.33334,85.33333l0,469.33334a85.33333,85.33333 0 0 1 -85.33334,85.33333l-682.66666,0a85.33333,85.33333 0 0 1 -85.33334,-85.33333l0,-469.33334a85.33333,85.33333 0 0 1 85.33334,-85.33333zm85.33333,755.2a29.86667,29.86667 0 0 0 29.86667,29.86667l452.56533,0a29.86667,29.86667 0 1 0 0,-59.73334l-452.56533,0a29.86667,29.86667 0 0 0 -29.86667,29.86667z"/>
  <path id="svg_2" p-id="3278" fill="#eeeeee" d="m298.66667,456.53333a29.86667,29.86667 0 0 1 29.86666,-29.86666l366.93334,0a29.86667,29.86667 0 0 1 0,59.73333l-366.93334,0a29.86667,29.86667 0 0 1 -29.86666,-29.86667z"/>
 </g>
</svg>